<svg xmlns="http://www.w3.org/2000/svg" viewBox="0 0 708.7 301.06" width="708" height="301"><title>characters-line-01</title><path d="M401.31,130.58a4.66,4.66,0,0,0,2.84-4.24l.05-5.55,17.43,19a4.65,4.65,0,0,0,8-4.08l-5.68-27.45L444.79,141a4.66,4.66,0,0,0,5.51,1.88l.24-.1a4.67,4.67,0,0,0,2.8-4.87l-3.53-28L708.7,0H684.88L442.93,102.78a4.66,4.66,0,0,0-2.8,4.87l1.37,10.9L418.16,81.91a4.66,4.66,0,0,0-8.49,3.45l7.4,35.69-14-15.28a4.65,4.65,0,0,0-8.09,3.1l-.13,14.33L0,290.94v10.12Z" style="fill:#fff"/></svg>